<svg id="visual" viewBox="0 0 1920 1080" width="1920" height="1080" xmlns="http://www.w3.org/2000/svg" xmlns:xlink="http://www.w3.org/1999/xlink" version="1.1"><rect x="0" y="0" width="1920" height="1080" fill="#01060b"></rect><defs><linearGradient id="grad1_0" x1="43.8%" y1="100%" x2="100%" y2="0%"><stop offset="14.444444444444446%" stop-color="#898686" stop-opacity="1"></stop><stop offset="85.55555555555554%" stop-color="#898686" stop-opacity="1"></stop></linearGradient></defs><defs><linearGradient id="grad1_1" x1="43.8%" y1="100%" x2="100%" y2="0%"><stop offset="14.444444444444446%" stop-color="#898686" stop-opacity="1"></stop><stop offset="85.55555555555554%" stop-color="#454346" stop-opacity="1"></stop></linearGradient></defs><defs><linearGradient id="grad1_2" x1="43.8%" y1="100%" x2="100%" y2="0%"><stop offset="14.444444444444446%" stop-color="#01060b" stop-opacity="1"></stop><stop offset="85.55555555555554%" stop-color="#454346" stop-opacity="1"></stop></linearGradient></defs><defs><linearGradient id="grad2_0" x1="0%" y1="100%" x2="56.3%" y2="0%"><stop offset="14.444444444444446%" stop-color="#898686" stop-opacity="1"></stop><stop offset="85.55555555555554%" stop-color="#898686" stop-opacity="1"></stop></linearGradient></defs><defs><linearGradient id="grad2_1" x1="0%" y1="100%" x2="56.3%" y2="0%"><stop offset="14.444444444444446%" stop-color="#454346" stop-opacity="1"></stop><stop offset="85.55555555555554%" stop-color="#898686" stop-opacity="1"></stop></linearGradient></defs><defs><linearGradient id="grad2_2" x1="0%" y1="100%" x2="56.3%" y2="0%"><stop offset="14.444444444444446%" stop-color="#454346" stop-opacity="1"></stop><stop offset="85.55555555555554%" stop-color="#01060b" stop-opacity="1"></stop></linearGradient></defs><g transform="translate(1920, 1080)"><path d="M-918 0C-810.6 -60.5 -703.1 -120.9 -641.4 -171.9C-579.6 -222.8 -563.6 -264.2 -558.6 -322.5C-553.6 -380.8 -559.5 -456 -551.5 -551.5C-543.6 -647 -521.7 -762.8 -459 -795C-396.3 -827.2 -292.9 -775.8 -209.6 -782.4C-126.4 -789 -63.2 -853.5 0 -918L0 0Z" fill="#252629"></path><path d="M-612 0C-540.4 -40.3 -468.7 -80.6 -427.6 -114.6C-386.4 -148.5 -375.7 -176.1 -372.4 -215C-369 -253.9 -373 -304 -367.7 -367.7C-362.4 -431.4 -347.8 -508.5 -306 -530C-264.2 -551.5 -195.3 -517.2 -139.8 -521.6C-84.2 -526 -42.1 -569 0 -612L0 0Z" fill="#676465"></path><path d="M-306 0C-270.2 -20.2 -234.4 -40.3 -213.8 -57.3C-193.2 -74.3 -187.9 -88.1 -186.2 -107.5C-184.5 -126.9 -186.5 -152 -183.8 -183.8C-181.2 -215.7 -173.9 -254.3 -153 -265C-132.1 -275.7 -97.6 -258.6 -69.9 -260.8C-42.1 -263 -21.1 -284.5 0 -306L0 0Z" fill="#898686"></path></g><g transform="translate(0, 0)"><path d="M918 0C936.3 92.1 954.6 184.2 886.7 237.6C818.9 291 664.9 305.6 586.3 338.5C507.7 371.4 504.6 422.7 478.7 478.7C452.9 534.7 404.4 595.5 345.5 598.4C286.6 601.4 217.4 546.5 158.1 590.2C98.8 633.8 49.4 775.9 0 918L0 0Z" fill="#252629"></path><path d="M612 0C624.2 61.4 636.4 122.8 591.1 158.4C545.9 194 443.3 203.7 390.9 225.7C338.5 247.6 336.4 281.8 319.1 319.1C301.9 356.5 269.6 397 230.3 398.9C191.1 400.9 145 364.4 105.4 393.5C65.9 422.5 32.9 517.3 0 612L0 0Z" fill="#676465"></path><path d="M306 0C312.1 30.7 318.2 61.4 295.6 79.2C273 97 221.6 101.9 195.4 112.8C169.2 123.8 168.2 140.9 159.6 159.6C151 178.2 134.8 198.5 115.2 199.5C95.5 200.5 72.5 182.2 52.7 196.7C32.9 211.3 16.5 258.6 0 306L0 0Z" fill="#898686"></path></g></svg>